# xmcd
# Copyright (C) 1995-1998 Ti Kan
#
# Track frame offsets:
#       150
#       1579
#       3008
#       4287
#       7236
#       10083
#
# Disc length: 163 seconds
#
# Revision: 0
# Processed by: cddbd v1.5.1PL0 Copyright (c) Steve Scherf et al.
# Submitted via: CD-Transfer v1.0
#
DISCID=2c00a106
DTITLE=Werbung - 
DYEAR=1900
DGENRE=
TTITLE0=Zillertaler Frischmilch 1
TTITLE1=Zillertaler Frischmilch 2
TTITLE2=Zillertaler Fm 3
TTITLE3=Erlebnissennerei Zillertal 1
TTITLE4=Erlebnissennerei Z 2
TTITLE5=Erlebnissennerei Z 3
EXTD=
EXTT0=
EXTT1=
EXTT2=
EXTT3=
EXTT4=
EXTT5=
PLAYORDER=
